<?xml version="1.0" encoding="UTF-8" standalone="no"?>
<svg
   xmlns:dc="http://purl.org/dc/elements/1.1/"
   xmlns:cc="http://creativecommons.org/ns#"
   xmlns:rdf="http://www.w3.org/1999/02/22-rdf-syntax-ns#"
   xmlns:svg="http://www.w3.org/2000/svg"
   xmlns="http://www.w3.org/2000/svg"
   xmlns:sodipodi="http://sodipodi.sourceforge.net/DTD/sodipodi-0.dtd"
   xmlns:inkscape="http://www.inkscape.org/namespaces/inkscape"
   version="1.1"
   id="Layer_1"
   x="0px"
   y="0px"
   width="100px"
   height="100px"
   viewBox="0 0 100 100"
   enable-background="new 0 0 100 100"
   xml:space="preserve"
   inkscape:version="0.48.4 r9939"
   sodipodi:docname="StyletIcon.svg"
   inkscape:export-filename="C:\Users\Antony\Documents\projects\Stylet\StyletIcon.png"
   inkscape:export-xdpi="28.799999"
   inkscape:export-ydpi="28.799999"><metadata
   id="metadata9"><rdf:RDF><cc:Work
       rdf:about=""><dc:format>image/svg+xml</dc:format><dc:type
         rdf:resource="http://purl.org/dc/dcmitype/StillImage" /></cc:Work></rdf:RDF></metadata><defs
   id="defs7"><clipPath
     clipPathUnits="userSpaceOnUse"
     id="clipPath3820"><path
       style="fill:none;stroke:#000000;stroke-width:1px;stroke-linecap:butt;stroke-linejoin:miter;stroke-opacity:1"
       d="M 61.450621,23.78341 78.058897,9.9457895 93.421552,90.376957 41.935897,100.75517 7.4737241,92.971511 11.210586,62.701717 53.56169,83.025721 68.093931,40.648009 z"
       id="path3822"
       inkscape:connector-curvature="0" /></clipPath></defs><sodipodi:namedview
   pagecolor="#ffffff"
   bordercolor="#666666"
   borderopacity="1"
   objecttolerance="10"
   gridtolerance="10"
   guidetolerance="10"
   inkscape:pageopacity="0"
   inkscape:pageshadow="2"
   inkscape:window-width="1366"
   inkscape:window-height="716"
   id="namedview5"
   showgrid="false"
   inkscape:zoom="1.668772"
   inkscape:cx="135.50251"
   inkscape:cy="11.99595"
   inkscape:window-x="-8"
   inkscape:window-y="-8"
   inkscape:window-maximized="1"
   inkscape:current-layer="g3829" />

<g
   style="display:inline"
   inkscape:groupmode="layer"
   id="g3829"
   inkscape:label="Letter"><text
     transform="scale(1.0205245,0.97988829)"
     clip-path="none"
     xml:space="preserve"
     style="font-size:71.2567215px;font-style:normal;font-weight:normal;line-height:125%;letter-spacing:0px;word-spacing:0px;fill:#000000;fill-opacity:1;stroke:none;font-family:Sans"
     x="13.708272"
     y="92.617264"
     id="text3831"
     sodipodi:linespacing="125%"><tspan
       sodipodi:role="line"
       id="tspan3833"
       x="13.708272"
       y="92.617264"
       style="font-size:114.01076508px;font-style:normal;font-variant:normal;font-weight:bold;font-stretch:normal;font-family:Batang;-inkscape-font-specification:Batang Bold">S</tspan></text>
</g><g
   inkscape:groupmode="layer"
   id="layer2"
   inkscape:label="Sword"><path
     clip-rule="evenodd"
     d="m 52.345989,69.055167 c -1.820616,-0.917365 -3.173322,-0.306151 -3.173322,-0.306151 -3.226519,1.558978 -4.948342,4.199252 -4.948342,4.199252 -2.391662,2.947509 -5.840737,1.835815 -5.840737,1.835815 -2.671757,-1.250656 -4.819151,-4.599852 -4.819151,-4.599852 -0.965133,-1.999747 -0.01954,-2.908426 -0.01954,-2.908426 L 82.05124,17.788043 90.910053,8.537314 c 0,0 1.186603,-1.555721 0.996617,-1.663199 -0.10965,-0.205186 -1.664285,0.996617 -1.664285,0.996617 L 80.991657,16.729545 31.50498,65.235889 c 0,0 -0.907594,0.945592 -2.910598,-0.01954 0,0 -3.347024,-2.147394 -4.598766,-4.819151 0,0 -1.110608,-3.450161 1.835815,-5.840737 0,0 2.64136,-1.721824 4.200337,-4.947257 0,0 0.611215,-1.353791 -0.30615,-3.174408 0,0 -1.057412,-0.500479 -0.724121,1.278883 0,0 0.446198,2.003004 -5.228437,5.674634 0,0 -4.591167,3.811678 -1.516637,9.30284 0,0 1.072611,2.709754 4.910344,6.770044 0,0 -13.567229,13.940688 -15.018728,14.797257 0,0 -0.715436,0.59493 -1.459098,0.578646 0,0 -0.803373,-0.863083 -1.654514,-0.137876 l -1.72508,2.061628 c 0,0 -1.066098,1.074782 0.05645,2.389491 l 1.037871,1.038956 0.185644,0.185645 1.038956,1.038956 c 1.312538,1.121465 2.390577,0.05645 2.390577,0.05645 l 2.058371,-1.72508 c 0.72955,-0.854398 -0.13679,-1.656685 -0.13679,-1.656685 -0.01303,-0.741491 0.581902,-1.456927 0.581902,-1.456927 C 15.377812,85.183416 29.3185,71.61293 29.3185,71.61293 c 4.06029,3.838819 6.77113,4.91143 6.77113,4.91143 5.492247,3.071272 9.303925,-1.516637 9.303925,-1.516637 3.671631,-5.674635 5.674635,-5.229523 5.674635,-5.229523 1.778276,0.335463 1.277796,-0.723035 1.277796,-0.723035 z"
     id="path3"
     style="fill:#9c00be;fill-opacity:1;fill-rule:evenodd;stroke:#000000;stroke-width:0.86851107999999999;stroke-miterlimit:4;stroke-opacity:1;stroke-dasharray:none"
     inkscape:connector-curvature="0" /></g><g
   inkscape:label="Sword Mask Thing"
   id="g3778"
   inkscape:groupmode="layer"
   style="display:inline"><text
     sodipodi:linespacing="125%"
     id="text3780"
     y="92.617264"
     x="13.708272"
     style="font-size:71.2567215px;font-style:normal;font-weight:normal;line-height:125%;letter-spacing:0px;word-spacing:0px;fill:#000000;fill-opacity:1;stroke:none;font-family:Sans"
     xml:space="preserve"
     clip-path="url(#clipPath3820)"
     transform="scale(1.0205245,0.97988829)"><tspan
       style="font-size:114.01076508000000000px;font-style:normal;font-variant:normal;font-weight:bold;font-stretch:normal;font-family:Batang;-inkscape-font-specification:Batang Bold"
       y="92.617264"
       x="13.708272"
       id="tspan3782"
       sodipodi:role="line">S</tspan></text>
</g></svg>